<?xml version="1.0" encoding="UTF-8" standalone="no"?>
<!-- Created with Inkscape (http://www.inkscape.org/) -->

<svg
   xmlns:dc="http://purl.org/dc/elements/1.1/"
   xmlns:cc="http://creativecommons.org/ns#"
   xmlns:rdf="http://www.w3.org/1999/02/22-rdf-syntax-ns#"
   xmlns:svg="http://www.w3.org/2000/svg"
   xmlns="http://www.w3.org/2000/svg"
   xmlns:sodipodi="http://sodipodi.sourceforge.net/DTD/sodipodi-0.dtd"
   xmlns:inkscape="http://www.inkscape.org/namespaces/inkscape"
   version="1.1"
   id="svg2"
   xml:space="preserve"
   width="956"
   height="285.33334"
   viewBox="0 0 956 285.33334"
   sodipodi:docname="logoON.svg"
   inkscape:version="0.92.4 (f8dce91, 2019-08-02)"><metadata
     id="metadata8"><rdf:RDF><cc:Work
         rdf:about=""><dc:format>image/svg+xml</dc:format><dc:type
           rdf:resource="http://purl.org/dc/dcmitype/StillImage" /><dc:title></dc:title></cc:Work></rdf:RDF></metadata><defs
     id="defs6" /><sodipodi:namedview
     pagecolor="#ffffff"
     bordercolor="#666666"
     borderopacity="1"
     objecttolerance="10"
     gridtolerance="10"
     guidetolerance="10"
     inkscape:pageopacity="0"
     inkscape:pageshadow="2"
     inkscape:window-width="1877"
     inkscape:window-height="1023"
     id="namedview4"
     showgrid="false"
     inkscape:zoom="0.74113075"
     inkscape:cx="384.67476"
     inkscape:cy="111.54144"
     inkscape:window-x="43"
     inkscape:window-y="27"
     inkscape:window-maximized="1"
     inkscape:current-layer="g10" /><g
     inkscape:groupmode="layer"
     id="layer1"
     inkscape:label="fundo"><rect
       style="fill:#000000;fill-opacity:1;stroke:none;stroke-width:1.88976383;stroke-miterlimit:4;stroke-dasharray:none;stroke-opacity:1"
       id="rect841"
       width="956"
       height="290.04391"
       x="1.9081836"
       y="1.0139822"
       inkscape:export-xdpi="90"
       inkscape:export-ydpi="90" /><path
       style="fill:#000000;fill-opacity:1;stroke:none;stroke-width:1.8030082;stroke-miterlimit:4;stroke-dasharray:none;stroke-opacity:1"
       d="m 167.04956,258.2731 c -13.34239,-1.84689 -18.35894,-2.87302 -26.23753,-5.36689 C 118.11594,245.72203 97.621584,231.12459 82.802346,211.58784 76.001047,202.62144 66.984875,184.09497 64.072375,173.10141 53.648164,133.75405 63.439633,93.636877 90.863993,63.331977 101.01438,52.115437 118.0285,40.38397 132.51327,34.614241 c 39.82959,-15.865358 83.23146,-9.188716 117.26322,18.038957 8.01425,6.411934 20.79213,20.539538 20.79141,22.987597 -9.6e-4,3.317077 -24.04738,116.615115 -26.30619,123.945395 -5.60711,18.19606 -15.74759,35.4972 -27.06061,46.16933 -8.11368,7.65403 -10.5446,8.97906 -19.67979,10.72691 -7.37656,1.41137 -25.51257,2.47713 -30.47175,1.79067 z m 30.5519,-57.08268 c 26.32384,-8.31726 43.96707,-34.07344 42.15905,-61.54518 -2.9267,-44.469364 -48.14694,-70.862108 -88.36625,-51.574854 -11.20773,5.374691 -21.9756,16.140814 -27.64675,27.642264 -11.93625,24.20748 -7.44633,50.83603 11.85951,70.33564 12.81764,12.9463 27.50872,18.77145 45.29783,17.96103 6.08221,-0.27709 11.60061,-1.20877 16.69661,-2.8189 z"
       id="path843"
       inkscape:connector-curvature="0"
       inkscape:export-xdpi="90"
       inkscape:export-ydpi="90" /><path
       style="fill:#000000;fill-opacity:1;stroke:none;stroke-width:1.8030082;stroke-miterlimit:4;stroke-dasharray:none;stroke-opacity:1"
       d="m 167.04956,258.2731 c -13.34239,-1.84689 -18.35894,-2.87302 -26.23753,-5.36689 C 118.11594,245.72203 97.621584,231.12459 82.802346,211.58784 76.001047,202.62144 66.984875,184.09497 64.072375,173.10141 53.648164,133.75405 63.439633,93.636877 90.863993,63.331977 101.01438,52.115437 118.0285,40.38397 132.51327,34.614241 c 39.82959,-15.865358 83.23146,-9.188716 117.26322,18.038957 8.01425,6.411934 20.79213,20.539538 20.79141,22.987597 -9.6e-4,3.317077 -24.04738,116.615115 -26.30619,123.945395 -5.60711,18.19606 -15.74759,35.4972 -27.06061,46.16933 -8.11368,7.65403 -10.5446,8.97906 -19.67979,10.72691 -7.37656,1.41137 -25.51257,2.47713 -30.47175,1.79067 z m 30.5519,-57.08268 c 26.32384,-8.31726 43.96707,-34.07344 42.15905,-61.54518 -2.9267,-44.469364 -48.14694,-70.862108 -88.36625,-51.574854 -11.20773,5.374691 -21.9756,16.140814 -27.64675,27.642264 -11.93625,24.20748 -7.44633,50.83603 11.85951,70.33564 12.81764,12.9463 27.50872,18.77145 45.29783,17.96103 6.08221,-0.27709 11.60061,-1.20877 16.69661,-2.8189 z"
       id="path845"
       inkscape:connector-curvature="0"
       inkscape:export-xdpi="90"
       inkscape:export-ydpi="90" /></g><g
     id="g10"
     inkscape:groupmode="layer"
     inkscape:label="ON-logo-eps-converted-to"
     transform="matrix(1.3333333,0,0,-1.3333333,0,285.33333)"><g
       id="g12"
       transform="scale(0.1)"
       inkscape:export-xdpi="90"
       inkscape:export-ydpi="90"><path
         d="m 3233.68,1618.78 c 43.46,0 75.67,-18.41 96.64,-55.23 21.47,-36.81 32.21,-92.8 32.21,-167.96 -0.51,-38.35 -3.33,-71.32 -8.44,-98.94 -5.11,-27.61 -13.04,-50.61 -23.77,-69.02 -20.97,-36.82 -53.18,-55.23 -96.64,-55.23 -40.39,0 -71.07,18.67 -92.04,55.99 -20.45,37.84 -30.68,93.57 -30.68,167.2 0,74.65 10.23,130.13 30.68,166.43 20.97,37.84 51.65,56.76 92.04,56.76 z m -230.09,-231.63 c 0,-77.72 20.46,-139.33 61.36,-184.84 40.39,-44.99 95.61,-67.49 165.66,-67.49 74.14,0 132.18,24.04 174.1,72.09 42.95,48.07 64.43,113.52 64.43,196.35 0,77.72 -20.45,139.33 -61.36,184.84 -40.39,44.99 -95.87,67.49 -166.43,67.49 -74.14,0 -132.17,-24.04 -174.1,-72.09 -42.95,-48.58 -64.17,-114.03 -63.66,-196.35 z m 656.22,252.83 -58.57,-12.55 v -491.56 l 57.18,27.89 c 10.69,-7.9 21.85,-13.48 33.46,-16.74 6.51,-2.32 13.02,-3.83 19.53,-4.52 6.5,-0.7 13.48,-1.05 20.92,-1.05 41.83,0 77.16,17.2 105.98,51.59 14.41,17.2 25.33,36.26 32.77,57.18 7.44,20.91 10.92,44.16 10.46,69.73 0,44.62 -11.62,81.34 -34.86,110.16 -23.25,28.82 -52.76,43.23 -88.55,43.23 -13.49,0 -27.2,-2.79 -41.14,-8.37 -6.51,-2.32 -14.65,-5.34 -24.41,-9.06 -9.76,-3.72 -20.68,-9.53 -32.77,-17.44 z m 0,-456.7 v 244.74 c 0.47,0.46 1.86,0.69 4.19,0.69 16.73,1.4 28.58,2.09 35.55,2.09 39.52,0 69.73,-10.92 90.65,-32.76 21.38,-23.25 31.84,-54.86 31.37,-94.83 0,-39.98 -9.99,-71.82 -29.98,-95.52 -20.45,-23.71 -47.41,-35.56 -80.88,-35.56 -3.72,0 -7.44,0.23 -11.16,0.69 -3.71,0.47 -7.43,1.16 -11.15,2.09 -4.65,0.93 -9.3,2.1 -13.94,3.49 -4.65,1.4 -9.53,3.02 -14.65,4.88 z m 528.8,278.9 c -7.9,2.32 -15.57,4.07 -23.01,5.23 -7.44,1.16 -14.88,2.21 -22.31,3.14 -7.44,0.93 -14.3,1.63 -20.58,2.09 -6.26,0.47 -12.66,0.7 -19.17,0.7 -33.47,0 -60.43,-8.6 -80.88,-25.8 -20.91,-18.13 -31.14,-40.67 -30.68,-67.63 0,-18.6 5.81,-35.56 17.43,-50.9 10.7,-14.41 28.82,-27.89 54.39,-40.44 l 36.26,-18.13 c 17.19,-8.83 28.58,-16.97 34.16,-24.4 6.51,-7.91 9.76,-17.9 9.76,-29.99 0,-13.48 -5.11,-25.8 -15.34,-36.95 -10.22,-10.23 -22.31,-15.34 -36.25,-15.34 -4.65,0 -9.3,0.12 -13.95,0.35 -4.65,0.23 -10.69,1.05 -18.13,2.44 -7.43,1.39 -16.85,3.72 -28.24,6.97 -11.38,3.25 -26.14,8.14 -44.27,14.64 v -34.86 c 17.2,-5.11 33.7,-8.83 49.5,-11.16 15.81,-2.78 29.99,-4.18 42.54,-4.18 39.04,0 68.79,8.83 89.25,26.5 21.37,18.12 32.07,43.23 32.07,75.3 0,18.13 -4.65,33.24 -13.95,45.32 -9.3,12.55 -25.8,25.1 -49.5,37.65 l -46.72,24.4 c -16.27,8.37 -27.88,16.74 -34.86,25.11 -7.44,8.83 -11.16,18.36 -11.16,28.58 0,13.48 4.42,24.64 13.25,33.47 8.83,8.84 19.53,13.25 32.07,13.25 14.42,0 24.87,-0.11 31.38,-0.35 6.51,-0.23 12.21,-0.93 17.08,-2.09 4.88,-1.16 10.7,-3.02 17.44,-5.58 6.74,-2.56 17.54,-5.92 32.42,-10.11 z m 392.14,-140.14 c -1.4,48.8 -13.02,86.22 -34.87,112.25 -21.38,26.03 -52.29,39.05 -92.74,39.05 -19.05,0 -38.58,-4.65 -58.56,-13.95 -19.53,-9.29 -35.79,-21.85 -48.81,-37.65 -13.95,-16.27 -24.4,-34.63 -31.38,-55.08 -6.51,-20.92 -9.76,-43 -9.76,-66.24 0,-49.27 13.25,-88.55 39.75,-117.84 26.96,-29.28 62.51,-43.92 106.67,-43.92 25.11,0 49.05,3.95 71.82,11.85 21.85,8.37 42.07,20.69 60.66,36.95 -12.55,-2.78 -25.33,-4.88 -38.35,-6.27 -12.55,-1.39 -24.17,-2.09 -34.86,-2.09 -49.74,0 -86,11.38 -108.77,34.16 -23.24,23.24 -34.86,58.81 -34.86,106.69 v 2.09 z m -70.43,36.25 -142.94,-0.7 c 0.47,8.37 1.28,15.46 2.44,21.27 1.16,5.81 2.68,11.04 4.54,15.69 1.85,4.65 4.07,8.83 6.62,12.55 2.56,3.72 5.69,7.9 9.41,12.55 13.95,18.59 32.77,27.89 56.48,27.89 20.45,0 36.02,-7.44 46.72,-22.31 5.11,-7.44 9.18,-16.74 12.2,-27.89 3.02,-11.16 4.53,-24.18 4.53,-39.05 z m 257.56,117.84 -57.87,-18.83 v -311.67 h 57.87 v 276.81 c 2.8,0.46 5.7,0.81 8.72,1.04 3.02,0.24 5.93,0.59 8.72,1.05 3.25,0.47 6.27,0.7 9.06,0.7 3.25,0 6.74,0 10.46,0 15.34,0 29.75,-2.33 43.23,-6.98 14.87,-5.11 27.42,-11.85 37.65,-20.21 v 69.72 c -6.51,2.32 -11.85,3.72 -16.04,4.18 -2.32,0.93 -4.41,1.4 -6.27,1.4 -1.86,0 -3.72,0 -5.58,0 -13.48,0 -26.73,-3.26 -39.75,-9.77 -6.97,-3.71 -14.64,-8.36 -23,-13.94 -8.37,-5.58 -17.44,-12.31 -27.2,-20.22 z m 172.5,-3.49 c 6.05,-14.41 11.63,-27.19 16.74,-38.35 5.11,-11.15 9.99,-23.01 14.64,-35.56 l 90.65,-257.28 h 39.04 l 79.49,234.27 32.07,96.92 h -32.77 l -85.07,-258.68 -60.66,192.44 c -3.72,11.62 -6.39,19.99 -8.01,25.1 -1.63,5.12 -2.91,9.3 -3.84,12.55 -0.93,3.26 -2.09,6.74 -3.49,10.46 -1.39,3.72 -3.72,9.77 -6.97,18.13 z m 589.46,-99.71 c 0,42.3 -6.04,69.5 -18.13,81.58 -12.55,12.56 -35.79,18.83 -69.72,18.83 -8.37,0 -17.08,-0.35 -26.15,-1.05 -9.07,-0.7 -18.94,-1.97 -29.63,-3.83 -10.69,-1.86 -21.39,-3.96 -32.08,-6.28 -10.69,-2.32 -21.84,-5.34 -33.46,-9.06 v -29.98 l 9.76,6.27 c 9.29,6.04 18.71,10.46 28.23,13.25 9.54,2.79 18.37,4.65 26.5,5.58 8.14,0.93 15.34,1.04 21.61,0.35 6.28,-0.7 11.05,-1.28 14.3,-1.75 7.9,-1.86 14.99,-3.71 21.27,-5.58 6.27,-1.85 11.73,-5.57 16.38,-11.15 8.83,-11.62 13.25,-26.97 13.25,-46.02 v -63.45 c -5.11,0.47 -9.65,0.81 -13.59,1.05 -3.96,0.23 -7.09,0.35 -9.42,0.35 h -13.25 c -50.67,0 -87.39,-7.44 -110.17,-22.32 -11.61,-7.43 -20.45,-17.08 -26.49,-28.93 -6.04,-11.86 -8.83,-25.68 -8.37,-41.49 0,-26.03 8.37,-47.64 25.1,-64.84 8.37,-9.3 17.32,-16.04 26.85,-20.23 9.53,-4.18 20.8,-6.27 33.82,-6.27 9.76,0 20.33,1.51 31.72,4.54 11.39,3.02 21.96,6.5 31.72,10.45 9.77,3.95 17.79,7.44 24.06,10.46 6.28,3.02 9.41,4.53 9.41,4.53 v -22.31 h 76.01 c -5.12,6.51 -8.72,14.29 -10.81,23.36 -2.1,9.06 -3.61,17.55 -4.54,25.45 -0.93,6.51 -1.86,14.64 -2.79,24.4 -0.93,9.76 -1.39,20.68 -1.39,32.77 v 4.88 z m -57.87,-70.42 v -119.93 c -5.11,-0.92 -9.76,-1.39 -13.95,-1.39 -3.72,0 -7.2,-0.23 -10.45,-0.7 h -16.74 c -23.7,0 -42.53,5.12 -56.47,15.34 -13.48,10.69 -20.23,25.33 -20.23,43.93 0,19.52 8.37,33.94 25.1,43.23 17.2,9.3 48.11,15.8 92.74,19.52 z m 266.63,258.68 c -6.97,-10.22 -14.53,-20.33 -22.66,-30.33 -8.14,-9.99 -16.85,-20.11 -26.15,-30.33 -9.76,-10.69 -20.1,-21.03 -31.03,-31.03 -10.92,-9.99 -22.42,-20.33 -34.51,-31.03 h 55.78 v -198.01 c 0,-39.05 5.35,-65.78 16.03,-80.19 11.63,-14.41 30.92,-21.61 57.88,-21.61 17.66,0 35.56,3.72 53.69,11.15 9.29,3.72 18.36,8.49 27.19,14.3 8.83,5.81 17.66,12.2 26.5,19.17 -4.65,-0.93 -9.07,-1.62 -13.25,-2.09 -4.19,-0.46 -8.37,-0.93 -12.55,-1.39 -3.72,-0.47 -7.44,-0.7 -11.16,-0.7 -3.72,0 -7.44,0 -11.16,0 -30.21,0 -50.2,4.18 -59.96,12.55 -9.76,8.37 -14.64,27.42 -14.64,57.17 v 189.65 h 106.68 v 30.68 H 5738.6 Z m 692.93,-85.06 -57.87,-18.83 v -311.67 h 57.87 v 276.81 c 2.79,0.46 5.69,0.81 8.71,1.04 3.03,0.24 5.93,0.59 8.72,1.05 3.25,0.47 6.27,0.7 9.06,0.7 3.26,0 6.74,0 10.46,0 15.34,0 29.75,-2.33 43.23,-6.98 14.88,-5.11 27.43,-11.85 37.65,-20.21 v 69.72 c -6.5,2.32 -11.85,3.72 -16.04,4.18 -2.32,0.93 -4.41,1.4 -6.27,1.4 -1.86,0 -3.71,0 -5.58,0 -13.47,0 -26.72,-3.26 -39.74,-9.77 -6.97,-3.71 -14.64,-8.36 -23.01,-13.94 -8.37,-5.58 -17.43,-12.31 -27.19,-20.22 z m 288.24,0 -57.87,-18.83 v -311.67 h 57.87 z m -30.68,155.49 c -10.69,-0.47 -19.52,-3.96 -26.49,-10.46 -6.51,-7.91 -9.76,-16.97 -9.76,-27.2 0.93,-13.01 4.18,-22.31 9.76,-27.89 6.04,-6.5 14.87,-9.76 26.49,-9.76 13.02,0.93 22.08,4.19 27.2,9.76 6.5,6.04 9.76,15.34 9.76,27.89 0,11.16 -3.49,20.22 -10.46,27.2 -6.97,6.97 -15.8,10.46 -26.5,10.46 z m 163.44,-327.02 c 0,-49.27 14.41,-89.71 43.23,-121.32 28.82,-31.61 65.31,-47.41 109.47,-47.41 46.02,0 83.67,15.8 112.95,47.41 29.75,31.61 44.62,71.82 44.62,120.63 0,49.27 -14.41,89.71 -43.22,121.32 -28.83,32.07 -65.31,48.11 -109.47,48.11 -45.56,0 -83.21,-16.04 -112.96,-48.11 -29.75,-31.61 -44.62,-71.82 -44.62,-120.63 z m 152.7,142.94 c 27.42,0 49.27,-13.72 65.54,-41.14 16.27,-28.35 24.4,-65.54 24.4,-111.56 0,-42.76 -7.44,-75.54 -22.31,-98.31 -14.87,-23.24 -35.79,-34.87 -62.75,-34.87 -27.43,0 -49.27,13.72 -65.54,41.14 -16.27,26.5 -24.41,63.68 -24.41,111.56 0,42.31 7.44,75.08 22.32,98.32 14.87,23.24 35.79,34.86 62.75,34.86"
         style="fill:#4f4c4c;fill-opacity:1;fill-rule:nonzero;stroke:none"
         id="path14"
         inkscape:connector-curvature="0" /><path
         d="m 5929.23,1304.6 c 0,-49.27 14.41,-89.71 43.23,-121.32 28.82,-31.61 65.31,-47.41 109.47,-47.41 46.02,0 83.67,15.8 112.95,47.41 29.75,31.61 44.62,71.82 44.62,120.63 0,49.27 -14.41,89.71 -43.22,121.32 -28.83,32.07 -65.31,48.11 -109.48,48.11 -45.55,0 -83.2,-16.04 -112.95,-48.11 -29.75,-31.61 -44.62,-71.82 -44.62,-120.63 z m 152.7,142.94 c 27.42,0 49.27,-13.72 65.54,-41.14 16.26,-28.35 24.4,-65.54 24.4,-111.56 0,-42.76 -7.44,-75.54 -22.31,-98.31 -14.87,-23.24 -35.79,-34.87 -62.76,-34.87 -27.42,0 -49.26,13.72 -65.53,41.14 -16.27,26.5 -24.41,63.68 -24.41,111.56 0,42.31 7.44,75.08 22.32,98.32 14.87,23.24 35.79,34.86 62.75,34.86 z m 29.28,178.5 -65.54,-115.05 160.37,115.05 z"
         style="fill:#4f4c4c;fill-opacity:1;fill-rule:nonzero;stroke:none"
         id="path16"
         inkscape:connector-curvature="0" /><path
         d="m 3121.7,991.875 h -84.36 V 488.746 h 49.85 v 381.18 L 3358.7,485.68 h 57.51 V 991.875 H 3365.6 V 643.672 Z m 667.1,-275.758 c 0,42.297 -6.05,69.488 -18.13,81.578 -12.55,12.547 -35.79,18.825 -69.72,18.825 -8.37,0 -17.09,-0.348 -26.15,-1.047 -9.07,-0.696 -18.94,-1.977 -29.63,-3.836 -10.7,-1.86 -21.38,-3.949 -32.08,-6.274 -10.69,-2.324 -21.84,-5.343 -33.46,-9.062 v -29.985 l 9.76,6.278 c 9.29,6.043 18.7,10.457 28.24,13.246 9.52,2.789 18.35,4.648 26.49,5.578 8.13,0.93 15.34,1.047 21.61,0.348 6.28,-0.696 11.04,-1.278 14.3,-1.743 7.9,-1.859 14.99,-3.718 21.26,-5.578 6.28,-1.859 11.74,-5.574 16.39,-11.156 8.83,-11.621 13.25,-26.957 13.25,-46.016 v -63.449 c -5.12,0.465 -9.65,0.813 -13.6,1.043 -3.95,0.235 -7.09,0.352 -9.41,0.352 h -13.25 c -50.67,0 -87.39,-7.438 -110.17,-22.313 -11.61,-7.437 -20.45,-17.082 -26.49,-28.933 -6.04,-11.856 -8.83,-25.684 -8.37,-41.489 0,-26.027 8.37,-47.644 25.11,-64.843 8.36,-9.293 17.31,-16.036 26.84,-20.219 9.53,-4.184 20.8,-6.274 33.81,-6.274 9.77,0 20.34,1.508 31.73,4.532 11.39,3.019 21.96,6.508 31.72,10.461 9.76,3.949 17.78,7.433 24.06,10.457 6.27,3.019 9.41,4.531 9.41,4.531 v -22.313 h 76 c -5.11,6.508 -8.71,14.293 -10.81,23.36 -2.09,9.062 -3.6,17.547 -4.53,25.449 -0.93,6.508 -1.86,14.641 -2.79,24.402 -0.93,9.762 -1.39,20.684 -1.39,32.77 v 4.879 z m -57.87,-70.422 V 525.77 c -5.12,-0.93 -9.77,-1.395 -13.95,-1.395 -3.72,0 -7.2,-0.23 -10.46,-0.695 h -16.73 c -23.71,0 -42.53,5.113 -56.48,15.34 -13.48,10.687 -20.22,25.332 -20.22,43.925 0,19.52 8.37,33.934 25.11,43.227 17.19,9.297 48.1,15.805 92.73,19.523 z m 433.26,158.969 c -7.9,2.324 -15.46,4.184 -22.66,5.578 -7.21,1.395 -14.06,2.559 -20.57,3.488 -6.97,0.93 -13.6,1.625 -19.87,2.09 -6.27,0.465 -12.67,0.7 -19.18,0.7 -50.66,0 -91.57,-16.965 -122.71,-50.899 -31.14,-33.933 -46.71,-78.324 -46.71,-133.172 0,-22.312 3.25,-42.531 9.76,-60.66 6.51,-18.129 16.73,-34.398 30.68,-48.805 13.94,-14.879 29.63,-25.683 47.06,-32.425 17.43,-6.739 36.84,-10.11 58.22,-10.11 24.63,0 46.71,3.719 66.24,11.156 10.69,3.719 21.03,8.602 31.02,14.641 10,6.043 19.64,13.02 28.94,20.918 -12.55,-2.324 -25.1,-3.715 -37.65,-4.18 -6.51,-0.929 -13.02,-1.394 -19.53,-1.394 -6.5,0 -13.01,0 -19.52,0 -44.16,0 -76.92,11.152 -98.31,33.465 -21.85,22.777 -32.77,55.781 -32.77,99.008 0,39.042 8.6,71.351 25.8,96.917 16.73,25.567 37.42,38.348 62.05,38.348 0.93,0 3.03,0 6.28,0 3.26,0 6.63,-0.117 10.11,-0.351 3.49,-0.231 6.86,-0.465 10.11,-0.696 3.25,-0.234 5.58,-0.347 6.97,-0.347 2.79,-0.465 7.91,-1.512 15.34,-3.141 7.44,-1.625 14.87,-3.371 22.31,-5.227 7.44,-1.859 14.06,-3.484 19.87,-4.882 5.82,-1.395 8.72,-2.09 8.72,-2.09 z m 175.99,14.645 -57.88,-18.825 V 488.816 h 57.88 z m -30.68,155.484 c -10.7,-0.465 -19.53,-3.953 -26.5,-10.457 -6.51,-7.906 -9.76,-16.969 -9.76,-27.195 0.93,-13.016 4.18,-22.309 9.76,-27.891 6.04,-6.508 14.88,-9.762 26.5,-9.762 13.01,0.93 22.07,4.184 27.19,9.762 6.51,6.047 9.76,15.34 9.76,27.891 0,11.156 -3.49,20.222 -10.46,27.195 -6.97,6.969 -15.8,10.457 -26.49,10.457 z m 163.43,-327.008 c 0,-49.269 14.41,-89.711 43.23,-121.316 28.82,-31.61 65.3,-47.414 109.46,-47.414 46.02,0 83.67,15.804 112.95,47.414 29.75,31.605 44.63,71.812 44.63,120.621 0,49.273 -14.41,89.711 -43.23,121.32 -28.82,32.074 -65.31,48.11 -109.47,48.11 -45.55,0 -83.2,-16.036 -112.95,-48.11 -29.75,-31.609 -44.62,-71.816 -44.62,-120.625 z m 152.69,142.938 c 27.43,0 49.27,-13.711 65.54,-41.137 16.27,-28.356 24.41,-65.543 24.41,-111.559 0,-42.765 -7.44,-75.535 -22.32,-98.312 -14.87,-23.238 -35.79,-34.863 -62.75,-34.863 -27.42,0 -49.27,13.714 -65.54,41.14 -16.27,26.492 -24.4,63.68 -24.4,111.559 0,42.297 7.44,75.07 22.31,98.308 14.88,23.243 35.79,34.864 62.75,34.864 z m 346.81,28.586 -59.26,-18.825 c 0,-13.949 0.11,-27.078 0.35,-39.398 0.23,-12.316 0.34,-24.984 0.34,-37.996 V 488.816 h 58.57 v 284.473 c 3.72,0.93 7.21,1.395 10.46,1.395 3.25,0 6.74,0 10.46,0 3.72,0.464 7.2,0.699 10.46,0.699 3.25,0 6.73,0 10.45,0 37.19,0 62.76,-6.973 76.7,-20.918 13.95,-13.945 20.92,-39.047 20.92,-75.301 V 488.816 h 57.87 v 209.872 c 0,39.507 -6.51,69.023 -19.52,88.546 -13.48,19.524 -33.47,29.286 -59.97,29.286 -13.01,0 -27.19,-2.325 -42.53,-6.973 -8.37,-2.324 -18.71,-5.813 -31.03,-10.457 -12.31,-4.649 -27.07,-10.692 -44.27,-18.133 z m 556.68,-103.192 c 0,42.297 -6.05,69.488 -18.13,81.578 -12.55,12.547 -35.79,18.825 -69.73,18.825 -8.36,0 -17.08,-0.348 -26.14,-1.047 -9.07,-0.696 -18.95,-1.977 -29.63,-3.836 -10.7,-1.86 -21.39,-3.949 -32.08,-6.274 -10.69,-2.324 -21.85,-5.343 -33.47,-9.062 v -29.985 l 9.77,6.278 c 9.29,6.043 18.7,10.457 28.23,13.246 9.53,2.789 18.36,4.648 26.5,5.578 8.13,0.93 15.34,1.047 21.61,0.348 6.28,-0.696 11.04,-1.278 14.3,-1.743 7.9,-1.859 14.99,-3.718 21.26,-5.578 6.28,-1.859 11.74,-5.574 16.39,-11.156 8.83,-11.621 13.24,-26.957 13.24,-46.016 v -63.449 c -5.11,0.465 -9.64,0.813 -13.59,1.043 -3.95,0.235 -7.09,0.352 -9.41,0.352 h -13.25 c -50.67,0 -87.39,-7.438 -110.17,-22.313 -11.61,-7.437 -20.45,-17.082 -26.49,-28.933 -6.04,-11.856 -8.83,-25.684 -8.37,-41.489 0,-26.027 8.37,-47.644 25.1,-64.843 8.37,-9.293 17.32,-16.036 26.85,-20.219 9.53,-4.184 20.8,-6.274 33.81,-6.274 9.77,0 20.34,1.508 31.73,4.532 11.38,3.019 21.96,6.508 31.72,10.461 9.76,3.949 17.78,7.433 24.05,10.457 6.28,3.019 9.42,4.531 9.42,4.531 v -22.313 h 76 c -5.11,6.508 -8.72,14.293 -10.81,23.36 -2.09,9.062 -3.6,17.547 -4.53,25.449 -0.93,6.508 -1.86,14.641 -2.79,24.402 -0.93,9.762 -1.39,20.684 -1.39,32.77 v 4.879 z m -57.88,-70.422 V 525.77 c -5.11,-0.93 -9.76,-1.395 -13.94,-1.395 -3.72,0 -7.2,-0.23 -10.46,-0.695 h -16.73 c -23.71,0 -42.53,5.113 -56.48,15.34 -13.48,10.687 -20.22,25.332 -20.22,43.925 0,19.52 8.37,33.934 25.1,43.227 17.2,9.297 48.11,15.805 92.73,19.523 z M 5735.07,983.16 5677.2,965.73 V 488.816 h 57.87 V 983.16"
         style="fill:#4f4c4c;fill-opacity:1;fill-rule:nonzero;stroke:none"
         id="path18"
         inkscape:connector-curvature="0" /><path
         d="M 9.00781,537.066 212.996,1616.61 c 64.645,306.67 252.731,502.32 617.758,516.32 107.215,-3.45 276.996,-29.73 408.386,-175.15 v 0 C 960.23,1948.37 822.055,1648.79 771.691,1352.27 L 609.785,538.91 9.00781,537.066"
         style="fill:#0087d1;fill-opacity:1;fill-rule:evenodd;stroke:none"
         id="path20"
         inkscape:connector-curvature="0" /><path
         d="m 1320.66,1961.47 c 490.91,0 888.89,-397.97 888.89,-888.89 0,-490.924 -397.98,-888.896 -888.89,-888.896 -490.93,0 -888.898,397.972 -888.898,888.896 0,490.92 397.968,888.89 888.898,888.89"
         style="fill:#ffffff;fill-opacity:1;fill-rule:evenodd;stroke:none"
         id="path22"
         inkscape:connector-curvature="0" /><path
         d="m 1320.66,1961.47 c 490.91,0 888.89,-397.97 888.89,-888.89 0,-490.924 -397.98,-888.896 -888.89,-888.896 -490.93,0 -888.898,397.972 -888.898,888.896 0,490.92 397.968,888.89 888.898,888.89 z"
         style="fill:none;stroke:#0087d1;stroke-width:28.3465004;stroke-linecap:butt;stroke-linejoin:miter;stroke-miterlimit:22.92560005;stroke-dasharray:none;stroke-opacity:1"
         id="path24"
         inkscape:connector-curvature="0" /><path
         d="m 1644.73,1409.53 c 188.59,-168.51 204.87,-457.987 36.36,-646.573 -168.5,-188.586 -457.98,-204.871 -646.57,-36.367 -188.586,168.504 -204.864,457.98 -36.364,646.57 168.504,188.59 457.984,204.87 646.574,36.37"
         style="fill:#0087d1;fill-opacity:1;fill-rule:evenodd;stroke:none"
         id="path26"
         inkscape:connector-curvature="0" /><path
         d="m 1601.47,1388.41 c 188.55,-168.48 204.84,-458.019 36.37,-646.578 -3.93,-4.391 -7.94,-8.656 -11.99,-12.859 141.26,200.894 112.78,480.287 -74.81,647.907 -89.25,79.74 -199.61,120.84 -310.58,124.51 126.41,15.49 258.6,-21.48 361.01,-112.98"
         style="fill:#ffffff;fill-opacity:1;fill-rule:evenodd;stroke:none"
         id="path28"
         inkscape:connector-curvature="0" /><path
         d="M 2632.32,1597.59 2428.33,518.043 C 2363.69,211.375 2175.61,-3.27734 1810.57,1.71484 1711.5,9.28125 1527.17,38.4219 1395.77,183.84 l 1.12,3.082 c 238.97,1.391 422.38,298.937 472.74,595.457 l 169.66,813.371 593.03,1.84"
         style="fill:#0087d1;fill-opacity:1;fill-rule:evenodd;stroke:none"
         id="path30"
         inkscape:connector-curvature="0" /></g><path
       style="fill:#ffffff;fill-opacity:1;stroke:none;stroke-width:1.27491927;stroke-miterlimit:4;stroke-dasharray:none;stroke-opacity:1"
       d="m 405.26772,186.72353 v -33.4222 l 5.54937,0.19594 5.54937,0.19595 15.8706,22.74548 c 8.72883,12.51001 16.09829,22.75618 16.37658,22.76926 0.2783,0.0131 0.50599,-10.29828 0.50599,-22.91414 V 153.3559 h 3.0359 3.0359 v 33.42858 33.42859 l -3.80657,-0.20233 -3.80657,-0.20233 -17.14806,-24.28721 c -9.43143,-13.35797 -17.58515,-24.73176 -18.11938,-25.27509 -0.84564,-0.86004 -0.97133,2.30468 -0.97133,24.45587 v 25.44375 h -3.0359 -3.0359 z"
       id="path851"
       inkscape:connector-curvature="0"
       transform="matrix(0.75000002,0,0,-0.75000002,0,214)"
       inkscape:export-xdpi="90"
       inkscape:export-ydpi="90" /><path
       style="fill:#ffffff;fill-opacity:1;stroke:none;stroke-width:1.27491927;stroke-miterlimit:4;stroke-dasharray:none;stroke-opacity:1"
       d="m 423.48313,133.05047 c -4.70177,-0.91822 -11.01595,-4.3514 -14.04329,-7.63567 -5.82813,-6.32277 -8.50504,-14.30339 -8.50504,-25.35584 0,-11.763291 3.04853,-20.392243 9.4747,-26.818413 6.17066,-6.170663 13.64419,-8.663797 24.30074,-8.10661 5.04271,0.263663 6.97158,0.69884 10.57817,2.386566 7.99845,3.742927 13.19875,10.206457 15.63891,19.437835 1.2707,4.807206 1.43231,16.240402 0.30679,21.703232 -3.69064,17.91275 -19.29421,27.99339 -37.75098,24.3889 z m 14.60728,-5.38066 c 6.601,-3.19549 9.60314,-10.75465 10.16732,-25.60059 0.83258,-21.908629 -4.74485,-32.594244 -17.01619,-32.600757 -4.84863,-0.0026 -7.42015,1.194888 -10.6373,4.953407 -3.86135,4.511119 -5.33038,10.148424 -5.72513,21.969854 -0.59712,17.881806 2.52748,27.463326 10.29063,31.555946 2.97701,1.56944 9.38952,1.43154 12.92067,-0.27786 z"
       id="path853"
       inkscape:connector-curvature="0"
       transform="matrix(0.75000002,0,0,-0.75000002,0,214)"
       inkscape:export-xdpi="90"
       inkscape:export-ydpi="90" /><path
       style="fill:#ffffff;fill-opacity:1;stroke:none;stroke-width:1.27491927;stroke-miterlimit:4;stroke-dasharray:none;stroke-opacity:1"
       d="M 480.15329,100.80868 V 68.500816 l 2.52992,-0.448374 c 1.39145,-0.246606 3.0612,-0.604442 3.71054,-0.79519 1.096,-0.321954 1.18063,0.59945 1.18063,12.854222 0,10.381856 0.1873,13.201036 0.87704,13.201036 0.48237,0 1.16545,-0.270024 1.51795,-0.600053 0.3525,-0.330028 2.53146,-1.278964 4.84213,-2.108746 13.32108,-4.783719 23.48673,4.98192 22.24992,21.374409 -0.90264,11.96352 -9.10608,20.73434 -19.39779,20.73941 -3.08142,0.002 -5.25162,-0.41145 -7.18247,-1.36676 l -2.76685,-1.36893 -2.93721,1.53687 c -1.61546,0.84528 -3.31669,1.55059 -3.78051,1.56736 -0.66333,0.024 -0.8433,-6.8646 -0.8433,-32.27739 z m 22.68438,26.14661 c 7.70454,-5.09862 9.32784,-20.54368 2.92556,-27.835477 -3.16202,-3.601341 -7.25554,-4.817596 -15.32161,-4.552313 l -2.86724,0.0943 v 16.47258 16.47257 l 1.85527,0.71252 c 1.0204,0.39188 3.86216,0.63734 6.31503,0.54547 3.48335,-0.13048 5.03626,-0.54857 7.09299,-1.90965 z"
       id="path855"
       inkscape:connector-curvature="0"
       transform="matrix(0.75000002,0,0,-0.75000002,0,214)"
       inkscape:export-xdpi="90"
       inkscape:export-ydpi="90" /><path
       style="fill:#ffffff;fill-opacity:1;stroke:none;stroke-width:1.27491927;stroke-miterlimit:4;stroke-dasharray:none;stroke-opacity:1"
       d="m 535.3055,132.28917 c -2.93025,-0.6107 -3.20456,-0.83487 -3.20456,-2.61882 0,-1.07303 0.15564,-1.95096 0.34586,-1.95096 0.19022,0 2.53695,0.60718 5.21494,1.34929 8.31305,2.30367 12.53915,1.38113 14.43262,-3.15059 1.99543,-4.77574 0.26848,-7.32122 -7.64876,-11.27403 -8.47614,-4.23186 -11.67002,-7.94659 -11.67002,-13.57313 0,-3.68218 1.21659,-6.284496 4.05431,-8.672283 2.99764,-2.522341 6.83054,-3.354111 13.48646,-2.926662 7.23668,0.464746 8.09573,0.800837 8.09573,3.167316 v 1.881011 l -4.10797,-1.278546 c -5.89726,-1.835434 -10.13058,-1.699355 -12.63275,0.406077 -3.38514,2.84841 -3.3844,6.591637 0.002,9.768137 0.8576,0.80447 4.15609,2.80691 7.32998,4.44988 7.67993,3.97552 10.17244,6.57477 10.60315,11.05718 0.61729,6.42431 -2.5649,11.42266 -8.54745,13.4257 -2.72317,0.91174 -11.24764,0.87951 -15.7535,-0.0596 z"
       id="path857"
       inkscape:connector-curvature="0"
       transform="matrix(0.75000002,0,0,-0.75000002,0,214)"
       inkscape:export-xdpi="90"
       inkscape:export-ydpi="90" /><path
       style="fill:#ffffff;fill-opacity:1;stroke:none;stroke-width:1.27491927;stroke-miterlimit:4;stroke-dasharray:none;stroke-opacity:1"
       d="m 480.48065,220.22508 c -0.74758,-0.3262 -2.34372,-1.60004 -3.54697,-2.83076 -4.8895,-5.0011 -4.59645,-13.05881 0.61811,-16.99543 3.15354,-2.3807 6.65263,-3.18295 13.9018,-3.18732 l 6.24046,-0.004 v -5.97204 c 0,-5.08484 -0.22663,-6.30832 -1.52553,-8.23577 -0.83904,-1.24505 -2.2811,-2.47405 -3.20456,-2.7311 -3.40328,-0.94731 -9.06312,-0.58902 -12.04104,0.76225 -3.63397,1.64896 -3.46821,1.66168 -3.46821,-0.26613 0,-1.46121 0.48683,-1.70277 5.59017,-2.77374 3.67596,-0.77142 7.59803,-1.08964 11.45387,-0.92931 5.18149,0.21545 6.06003,0.44017 7.55107,1.93143 2.39583,2.39617 3.06049,6.94377 3.09471,21.17373 0.0274,11.37597 0.42083,15.87269 1.64489,18.79797 0.44354,1.06 0.004,1.18063 -4.30067,1.18063 -4.6358,0 -4.7947,-0.0547 -4.7947,-1.64949 v -1.64948 l -3.8792,1.72922 c -4.10689,1.83071 -10.97214,2.67977 -13.3342,1.6491 z m 16.28577,-4.80186 c 0.73555,0 0.92763,-1.67639 0.92763,-8.09574 v -8.09574 h -2.21951 c -7.40853,0 -13.97196,3.82377 -13.97196,8.13989 0,2.57517 1.61755,5.76269 3.4116,6.72284 2.03889,1.09118 6.77518,1.94295 8.985,1.61585 1.06678,-0.15791 2.35704,-0.2871 2.86724,-0.2871 z"
       id="path859"
       inkscape:connector-curvature="0"
       transform="matrix(0.75000002,0,0,-0.75000002,0,214)"
       inkscape:export-xdpi="90"
       inkscape:export-ydpi="90" /><path
       style="fill:#ffffff;fill-opacity:1;stroke:none;stroke-width:1.27491927;stroke-miterlimit:4;stroke-dasharray:none;stroke-opacity:1"
       d="m 533.87356,219.86911 c -3.85859,-1.43336 -7.09945,-4.34899 -9.45988,-8.51055 -1.97629,-3.4843 -2.09506,-4.09544 -2.09455,-10.77753 4.7e-4,-6.21927 0.21462,-7.54036 1.75482,-10.8251 2.32763,-4.96408 5.14131,-8.05481 9.49849,-10.43379 3.02875,-1.65367 4.5352,-2.00122 9.66014,-2.22872 3.37809,-0.14995 7.34383,0.0734 8.93904,0.50341 2.43189,0.65557 2.86724,1.03701 2.86724,2.51219 0,1.54276 -0.2096,1.69491 -1.85527,1.34673 -10.93676,-2.31394 -13.6094,-2.20619 -17.04809,0.68728 -1.14233,0.9612 -2.89691,3.30194 -3.89907,5.20165 -1.64472,3.11775 -1.8221,4.14362 -1.8221,10.53777 0,6.01386 0.22479,7.50402 1.48836,9.86615 3.26293,6.09975 9.26311,8.71547 18.83943,8.21284 6.42001,-0.33696 6.58693,0.31772 0.73361,2.87746 -4.45525,1.94834 -13.67755,2.4881 -17.60217,1.03021 z"
       id="path861"
       inkscape:connector-curvature="0"
       transform="matrix(0.75000002,0,0,-0.75000002,0,214)"
       inkscape:export-xdpi="90"
       inkscape:export-ydpi="90" /><path
       style="fill:#ffffff;fill-opacity:1;stroke:none;stroke-width:1.27491927;stroke-miterlimit:4;stroke-dasharray:none;stroke-opacity:1"
       d="m 571.38925,199.46454 0.17841,-20.68118 3.54188,-1.20369 3.54189,-1.20368 v 21.88487 21.88487 h -3.7203 -3.72029 z"
       id="path863"
       inkscape:connector-curvature="0"
       transform="matrix(0.75000002,0,0,-0.75000002,0,214)"
       inkscape:export-xdpi="90"
       inkscape:export-ydpi="90" /><path
       style="fill:#ffffff;fill-opacity:1;stroke:none;stroke-width:1.27491927;stroke-miterlimit:4;stroke-dasharray:none;stroke-opacity:1"
       d="m 571.31695,163.91725 c -1.46826,-1.76914 -1.61662,-4.79506 -0.31092,-6.34126 2.01432,-2.38534 4.58351,-2.6208 6.59948,-0.60483 3.27379,3.27379 1.54905,7.8537 -2.9576,7.8537 -1.41774,0 -2.91668,-0.40842 -3.33096,-0.90761 z"
       id="path865"
       inkscape:connector-curvature="0"
       transform="matrix(0.75000002,0,0,-0.75000002,0,214)"
       inkscape:export-xdpi="90"
       inkscape:export-ydpi="90" /><path
       style="fill:#ffffff;fill-opacity:1;stroke:none;stroke-width:1.27491927;stroke-miterlimit:4;stroke-dasharray:none;stroke-opacity:1"
       d="m 586.57713,132.154 c -9.02767,-3.22166 -13.76288,-12.98023 -11.92775,-24.58136 0.81901,-5.17757 2.63604,-8.996837 5.92885,-12.462022 4.02462,-4.235308 7.01425,-5.469211 13.30257,-5.490346 4.90448,-0.01649 5.777,0.185518 8.76004,2.028097 4.01691,2.481182 6.81409,7.462526 7.46935,13.301761 l 0.43532,3.87921 h -14.35654 -14.35653 l 0.43552,4.16683 c 0.66107,6.32478 3.29267,10.50053 8.2158,13.03661 3.68233,1.8969 4.40647,2.02394 11.53691,2.02394 h 7.60797 l -2.50169,1.52765 c -5.53365,3.3791 -14.97377,4.55953 -20.54982,2.56963 z m 14.85015,-30.36725 c -0.76295,-6.768848 -4.83032,-10.555884 -10.24609,-9.53988 -4.36101,0.81813 -9.09789,6.526531 -9.14172,11.01665 -0.0147,1.50568 0.065,1.51795 9.85527,1.51795 h 9.87009 z"
       id="path867"
       inkscape:connector-curvature="0"
       transform="matrix(0.75000002,0,0,-0.75000002,0,214)"
       inkscape:export-xdpi="90"
       inkscape:export-ydpi="90" /><path
       style="fill:#ffffff;fill-opacity:1;stroke:none;stroke-width:1.27491927;stroke-miterlimit:4;stroke-dasharray:none;stroke-opacity:1"
       d="M 628.57514,111.84854 V 91.25518 l 1.71637,-0.652561 c 0.944,-0.358909 2.46195,-0.839692 3.37322,-1.068407 1.55801,-0.391033 1.65686,-0.250472 1.65686,2.355872 0,1.524443 0.15647,2.771716 0.3477,2.771716 0.19124,0 2.02644,-1.114619 4.07823,-2.476931 2.83013,-1.879097 4.61878,-2.550592 7.41071,-2.782121 l 3.68019,-0.305189 v 4.435747 4.435748 l -2.86724,-1.301488 c -1.97229,-0.895254 -4.39392,-1.306113 -7.75841,-1.316305 l -4.89118,-0.01482 v 18.552739 18.55273 h -3.37322 -3.37323 z"
       id="path869"
       inkscape:connector-curvature="0"
       transform="matrix(0.75000002,0,0,-0.75000002,0,214)"
       inkscape:export-xdpi="90"
       inkscape:export-ydpi="90" /><path
       style="fill:#ffffff;fill-opacity:1;stroke:none;stroke-width:1.27491927;stroke-miterlimit:4;stroke-dasharray:none;stroke-opacity:1"
       d="m 612.99284,220.79294 c -4.08285,-0.66591 -6.83146,-2.14699 -10.1581,-5.47363 -4.01014,-4.01014 -5.49596,-7.85769 -5.82179,-15.0756 -0.32531,-7.20633 1.09112,-11.88009 4.97576,-16.41842 3.88813,-4.54241 7.64411,-6.36324 13.86936,-6.72361 6.62312,-0.38341 10.35944,0.89346 14.8181,5.06402 4.71083,4.40643 6.30057,8.53091 6.3179,16.3914 0.0173,7.8504 -1.31284,11.77032 -5.52043,16.26857 -4.61564,4.9345 -11.39392,7.12314 -18.4808,5.96727 z m 11.20363,-5.37604 c 3.19284,-3.09462 4.5604,-7.6084 4.58115,-15.12062 0.0273,-9.89443 -2.76242,-16.99848 -7.63702,-19.44756 -6.11894,-3.07426 -12.333,0.23546 -14.88127,7.92603 -1.12487,3.3948 -1.13394,14.52296 -0.0151,18.55273 1.11223,4.00603 3.65783,7.82694 6.33512,9.50892 3.40877,2.14152 8.5972,1.50755 11.61714,-1.4195 z"
       id="path871"
       inkscape:connector-curvature="0"
       transform="matrix(0.75000002,0,0,-0.75000002,0,214)"
       inkscape:export-xdpi="90"
       inkscape:export-ydpi="90" /><path
       style="fill:#ffffff;fill-opacity:1;stroke:none;stroke-width:1.27491927;stroke-miterlimit:4;stroke-dasharray:none;stroke-opacity:1"
       d="M 655.56093,199.34276 V 178.5398 l 3.71055,-1.03278 3.71055,-1.03278 v 2.34973 c 0,2.65495 -0.48852,2.66204 7.08377,-0.10276 2.96705,-1.08333 6.15577,-1.72958 8.57824,-1.73852 3.35559,-0.0124 4.16295,0.25551 6.22408,2.06521 1.30259,1.14369 2.71653,3.19292 3.14208,4.55385 0.4516,1.44422 0.91075,9.56667 1.10283,19.5092 l 0.32909,17.03478 h -3.74016 -3.74016 l -0.21352,-15.68549 c -0.18318,-13.45677 -0.3829,-15.99541 -1.40557,-17.86667 -1.76488,-3.22932 -4.64408,-4.42819 -11.45754,-4.7708 l -5.90314,-0.29684 v 19.3099 19.3099 h -3.71055 -3.71055 z"
       id="path873"
       inkscape:connector-curvature="0"
       transform="matrix(0.75000002,0,0,-0.75000002,0,214)"
       inkscape:export-xdpi="90"
       inkscape:export-ydpi="90" /><path
       style="fill:#ffffff;fill-opacity:1;stroke:none;stroke-width:1.27491927;stroke-miterlimit:4;stroke-dasharray:none;stroke-opacity:1"
       d="m 673.91815,129.27193 c -0.77743,-2.15259 -3.88433,-10.88087 -6.90422,-19.39619 -3.0199,-8.51532 -6.07943,-16.636352 -6.79896,-18.046746 l -1.30823,-2.564353 h 4.68122 4.68122 l 1.36211,4.21653 c 0.74917,2.319092 3.24765,10.136539 5.55218,17.372099 l 4.19005,13.15558 5.7934,-17.37211 c 5.75582,-17.259402 5.8058,-17.372099 7.70387,-17.372099 1.67235,0 1.8512,0.189192 1.43496,1.517951 -0.26153,0.834873 -3.58292,10.625658 -7.38086,21.757298 l -6.90535,20.23934 -2.34394,0.20325 c -2.29313,0.19883 -2.37461,0.11837 -3.75745,-3.71055 z"
       id="path875"
       inkscape:connector-curvature="0"
       transform="matrix(0.75000002,0,0,-0.75000002,0,214)"
       inkscape:export-xdpi="90"
       inkscape:export-ydpi="90" /><path
       style="fill:#ffffff;fill-opacity:1;stroke:none;stroke-width:1.27491927;stroke-miterlimit:4;stroke-dasharray:none;stroke-opacity:1"
       d="m 711.0736,131.70429 c -4.99823,-3.20133 -6.84991,-10.15117 -4.11744,-15.45386 2.38052,-4.61969 6.16017,-6.23353 15.50044,-6.61836 l 7.31526,-0.3014 -0.003,-5.81649 c -0.003,-7.343191 -1.22393,-9.751868 -5.53253,-10.916307 -3.78372,-1.022587 -9.44856,-0.407893 -12.42498,1.34824 l -2.36969,1.39815 0.21385,-1.859182 c 0.1852,-1.610071 0.66583,-1.976491 3.58707,-2.734685 5.73323,-1.488027 15.79936,-1.819452 18.66892,-0.61467 4.6511,1.952753 4.85034,2.750581 5.32691,21.330254 0.25514,9.94722 0.73637,17.35124 1.20177,18.48993 0.42693,1.04455 0.77623,2.03122 0.77623,2.1926 0,0.16137 -2.12513,0.2934 -4.72251,0.2934 -4.27275,0 -4.72252,-0.12851 -4.72252,-1.34929 0,-0.74211 -0.11565,-1.34929 -0.257,-1.34929 -0.14135,0 -2.27341,0.75897 -4.73791,1.68661 -5.62715,2.11805 -10.66724,2.21896 -13.70335,0.27435 z m 17.63112,-3.71975 c 0.89127,-0.34201 1.06714,-1.74717 1.06714,-8.52595 v -8.11644 l -3.54188,0.42682 c -7.99315,0.96324 -11.63403,2.9901 -12.36438,6.8832 -0.463,2.46801 0.53076,5.76082 2.14223,7.09822 2.46118,2.0426 9.82118,3.33766 12.69689,2.23415 z"
       id="path877"
       inkscape:connector-curvature="0"
       transform="matrix(0.75000002,0,0,-0.75000002,0,214)"
       inkscape:export-xdpi="90"
       inkscape:export-ydpi="90" /><path
       style="fill:#ffffff;fill-opacity:1;stroke:none;stroke-width:1.27491927;stroke-miterlimit:4;stroke-dasharray:none;stroke-opacity:1"
       d="m 711.65713,219.71923 c -1.24331,-0.63644 -2.96854,-2.24289 -3.83384,-3.56989 -4.67312,-7.1666 -1.87655,-15.60011 5.94304,-17.92229 1.98933,-0.59076 6.07502,-1.01924 9.71886,-1.01924 h 6.28667 v -5.41883 c 0,-5.65495 -0.95571,-9.04776 -3.03453,-10.77265 -1.80523,-1.49787 -11.41827,-1.3856 -14.44122,0.16866 -2.87117,1.47623 -2.76359,1.49258 -2.76359,-0.41997 0,-1.46121 0.48683,-1.70277 5.59017,-2.77374 3.67596,-0.77142 7.59803,-1.08964 11.45387,-0.92931 5.208,0.21655 6.05539,0.43553 7.57785,1.9582 2.34558,2.34593 3.02329,7.11478 3.06402,21.56086 0.031,11.00077 0.4325,15.47735 1.6488,18.38407 0.44354,1.06 0.004,1.18063 -4.30067,1.18063 -4.6358,0 -4.7947,-0.0547 -4.7947,-1.64949 v -1.64948 l -3.87921,1.72922 c -5.02711,2.24092 -11.13319,2.7313 -14.23552,1.14325 z m 17.1871,-4.29601 c 0.73555,0 0.92763,-1.67639 0.92763,-8.09574 v -8.09574 h -2.21951 c -7.40853,0 -13.97196,3.82377 -13.97196,8.13989 0,2.63873 1.6272,5.76304 3.54886,6.81401 2.00832,1.09835 6.44039,1.85666 8.84773,1.51381 1.06679,-0.15193 2.35705,-0.27623 2.86725,-0.27623 z"
       id="path879"
       inkscape:connector-curvature="0"
       transform="matrix(0.75000002,0,0,-0.75000002,0,214)"
       inkscape:export-xdpi="90"
       inkscape:export-ydpi="90" /><path
       style="fill:#ffffff;fill-opacity:1;stroke:none;stroke-width:1.27491927;stroke-miterlimit:4;stroke-dasharray:none;stroke-opacity:1"
       d="m 757.59435,188.34312 0.17527,-31.8026 3.0359,-0.90743 c 1.66975,-0.49908 3.1118,-0.91203 3.20457,-0.91766 0.0928,-0.006 0.16866,14.71388 0.16866,32.71003 v 32.72027 h -3.37983 -3.37983 z"
       id="path881"
       inkscape:connector-curvature="0"
       transform="matrix(0.75000002,0,0,-0.75000002,0,214)"
       inkscape:export-xdpi="90"
       inkscape:export-ydpi="90" /><path
       style="fill:#ffffff;fill-opacity:1;stroke:none;stroke-width:1.27491927;stroke-miterlimit:4;stroke-dasharray:none;stroke-opacity:1"
       d="m 762.49213,132.52036 c -4.26204,-1.87579 -5.05983,-5.78527 -5.05983,-24.79507 V 93.31251 h -3.32402 -3.32402 l 4.89689,-4.891175 c 2.69328,-2.690146 5.85884,-6.098809 7.03456,-7.574806 l 2.13768,-2.683632 v 5.888195 5.888194 h 7.08377 7.08377 v 1.686612 1.686612 h -7.08377 -7.08377 l 0.004,13.99888 c 0.004,14.91882 0.53374,18.57679 2.87138,19.82786 0.80675,0.43176 3.88413,0.96661 6.83862,1.18856 l 5.37178,0.40355 -3.59639,1.95261 c -3.81867,2.0733 -11.1143,3.04061 -13.85043,1.83639 z"
       id="path883"
       inkscape:connector-curvature="0"
       transform="matrix(0.75000002,0,0,-0.75000002,0,214)"
       inkscape:export-xdpi="90"
       inkscape:export-ydpi="90" /><path
       style="fill:#ffffff;fill-opacity:1;stroke:none;stroke-width:1.27491927;stroke-miterlimit:4;stroke-dasharray:none;stroke-opacity:1"
       d="m 806.34405,133.19632 c -10.75124,-2.83167 -16.71734,-13.14225 -15.02446,-25.96518 2.22726,-16.870521 22.20093,-24.033597 34.03036,-12.204165 2.89772,2.897721 3.75558,4.340222 4.98161,8.376665 1.84609,6.07784 1.59188,12.80361 -0.68224,18.05084 -1.73005,3.99186 -6.70024,9.02441 -10.46687,10.59821 -2.99364,1.25082 -10.04618,1.87905 -12.8384,1.14363 z m 11.10946,-4.54982 c 3.78608,-3.18578 4.98281,-6.47941 5.29114,-14.56227 0.364,-9.54216 -1.23953,-15.364499 -5.22261,-18.962972 -4.61172,-4.166412 -10.17894,-3.939974 -14.14337,0.575259 -6.55276,7.463173 -4.72303,28.475103 2.90529,33.363303 3.19319,2.04617 8.47906,1.85057 11.16955,-0.41332 z"
       id="path885"
       inkscape:connector-curvature="0"
       transform="matrix(0.75000002,0,0,-0.75000002,0,214)"
       inkscape:export-xdpi="90"
       inkscape:export-ydpi="90" /><path
       style="fill:#ffffff;fill-opacity:1;stroke:none;stroke-width:1.27491927;stroke-miterlimit:4;stroke-dasharray:none;stroke-opacity:1"
       d="m 808.03066,81.495219 c 0,-0.276932 1.54076,-3.195954 3.42392,-6.486717 l 3.42393,-5.983204 h 5.78443 5.78442 l -7.47445,5.350619 c -9.49122,6.794334 -10.94225,7.738414 -10.94225,7.119302 z"
       id="path887"
       inkscape:connector-curvature="0"
       transform="matrix(0.75000002,0,0,-0.75000002,0,214)"
       inkscape:export-xdpi="90"
       inkscape:export-ydpi="90" /><path
       style="fill:#ffffff;fill-opacity:1;stroke:none;stroke-width:1.27491927;stroke-miterlimit:4;stroke-dasharray:none;stroke-opacity:1"
       d="m 850.01755,111.77081 0.17841,-20.671094 3.0359,-0.907296 c 4.13186,-1.234828 4.04787,-1.27157 4.04787,1.770801 0,1.484218 0.12129,2.698579 0.26953,2.698579 0.14824,0 1.83194,-1.051427 3.74156,-2.336505 3.54271,-2.384069 6.69324,-3.356204 9.56209,-2.950495 1.46955,0.207821 1.62339,0.584592 1.80669,4.424904 l 0.20037,4.197739 -2.89895,-1.315683 c -2.00492,-0.90993 -4.40736,-1.320252 -7.79012,-1.330499 l -4.89117,-0.01482 v 18.552739 18.55273 h -3.7203 -3.72029 z"
       id="path889"
       inkscape:connector-curvature="0"
       transform="matrix(0.75000002,0,0,-0.75000002,0,214)"
       inkscape:export-xdpi="90"
       inkscape:export-ydpi="90" /><path
       style="fill:#ffffff;fill-opacity:1;stroke:none;stroke-width:1.27491927;stroke-miterlimit:4;stroke-dasharray:none;stroke-opacity:1"
       d="M 888.31339,111.84854 V 91.25518 l 1.51795,-0.571996 c 0.83487,-0.314597 2.50462,-0.78659 3.71055,-1.048873 l 2.19259,-0.476878 v 21.642237 21.64224 h -3.71055 -3.71054 z"
       id="path891"
       inkscape:connector-curvature="0"
       transform="matrix(0.75000002,0,0,-0.75000002,0,214)"
       inkscape:export-xdpi="90"
       inkscape:export-ydpi="90" /><path
       style="fill:#ffffff;fill-opacity:1;stroke:none;stroke-width:1.27491927;stroke-miterlimit:4;stroke-dasharray:none;stroke-opacity:1"
       d="m 928.65197,132.88524 c -14.94977,-4.21232 -19.83906,-26.29503 -8.36286,-37.771231 4.34969,-4.349692 7.33225,-5.502369 14.23745,-5.502369 7.32015,0 10.02077,1.179374 14.75296,6.442712 3.71009,4.126518 5.26811,8.677798 5.26811,15.389168 0,5.66607 -0.87455,9.0036 -3.4047,12.99323 -4.61769,7.28134 -14.0536,10.82584 -22.49096,8.44849 z m 11.48584,-3.83679 c 7.1302,-4.34714 8.2874,-24.14634 1.902,-32.542512 -4.03618,-5.307182 -10.45701,-5.939178 -14.92694,-1.469245 -3.40541,3.405408 -4.59651,8.148227 -4.29063,17.084807 0.21709,6.34239 0.47995,7.64459 2.26441,11.21794 2.50022,5.00664 5.34428,7.07956 9.70834,7.07601 1.92506,-0.002 3.95517,-0.52098 5.34282,-1.367 z"
       id="path893"
       inkscape:connector-curvature="0"
       transform="matrix(0.75000002,0,0,-0.75000002,0,214)"
       inkscape:export-xdpi="90"
       inkscape:export-ydpi="90" /><path
       style="fill:#ffffff;fill-opacity:1;stroke:none;stroke-width:1.27491927;stroke-miterlimit:4;stroke-dasharray:none;stroke-opacity:1"
       d="m 889.66268,76.942951 c -1.31626,-0.675403 -1.73128,-1.473365 -1.89001,-3.633974 -0.24865,-3.384451 1.08289,-4.958324 4.19489,-4.958324 2.70193,0 4.44157,1.753922 4.44157,4.478029 0,3.785063 -3.37586,5.8438 -6.74645,4.114269 z"
       id="path895"
       inkscape:connector-curvature="0"
       transform="matrix(0.75000002,0,0,-0.75000002,0,214)"
       inkscape:export-xdpi="90"
       inkscape:export-ydpi="90" /></g></svg>